<svg width="26" height="31" viewBox="0 0 26 31" fill="none" xmlns="http://www.w3.org/2000/svg">
<path d="M24.1429 1.9375H1.85134C0.829911 1.9375 0 2.81543 0 3.89316V27.1068C0 28.1846 0.829911 29.0625 1.85134 29.0625H24.1429C25.1643 29.0625 26 28.1846 26 27.1068V3.89316C26 2.81543 25.1643 1.9375 24.1429 1.9375ZM7.85804 25.1875H4.00446V12.2426H7.86384V25.1875H7.85804ZM5.93125 10.4746C4.69509 10.4746 3.69687 9.42715 3.69687 8.14355C3.69687 6.85996 4.69509 5.8125 5.93125 5.8125C7.16161 5.8125 8.16562 6.85996 8.16562 8.14355C8.16562 9.4332 7.16741 10.4746 5.93125 10.4746ZM22.3031 25.1875H18.4496V18.8906C18.4496 17.3891 18.4205 15.4576 16.4473 15.4576C14.4393 15.4576 14.1317 17.0924 14.1317 18.7816V25.1875H10.2781V12.2426H13.975V14.0105H14.0272C14.5437 12.9934 15.8031 11.9217 17.6777 11.9217C21.5777 11.9217 22.3031 14.6039 22.3031 18.0914V25.1875Z" fill="white"/>
</svg>
