<svg width="31" height="31" viewBox="0 0 31 31" fill="none" xmlns="http://www.w3.org/2000/svg">
<path d="M21.1508 4.19772C22.6483 4.20219 24.0832 4.79904 25.1421 5.85792C26.201 6.91681 26.7978 8.35168 26.8023 9.84916V21.1508C26.7978 22.6483 26.201 24.0832 25.1421 25.1421C24.0832 26.201 22.6483 26.7978 21.1508 26.8023H9.84916C8.35168 26.7978 6.91681 26.201 5.85792 25.1421C4.79904 24.0832 4.20219 22.6483 4.19772 21.1508V9.84916C4.20219 8.35168 4.79904 6.91681 5.85792 5.85792C6.91681 4.79904 8.35168 4.20219 9.84916 4.19772H21.1508ZM21.1508 1.9375H9.84916C5.49766 1.9375 1.9375 5.49766 1.9375 9.84916V21.1508C1.9375 25.5023 5.49766 29.0625 9.84916 29.0625H21.1508C25.5023 29.0625 29.0625 25.5023 29.0625 21.1508V9.84916C29.0625 5.49766 25.5023 1.9375 21.1508 1.9375Z" fill="white"/>
<path d="M22.8462 9.84961C22.5109 9.84961 22.1831 9.75018 21.9043 9.5639C21.6255 9.37762 21.4082 9.11284 21.2799 8.80307C21.1516 8.49329 21.118 8.15242 21.1834 7.82356C21.2488 7.4947 21.4103 7.19262 21.6474 6.95553C21.8845 6.71844 22.1866 6.55697 22.5154 6.49156C22.8443 6.42615 23.1851 6.45972 23.4949 6.58803C23.8047 6.71635 24.0695 6.93364 24.2558 7.21243C24.442 7.49123 24.5415 7.819 24.5415 8.1543C24.5419 8.37706 24.4984 8.59773 24.4134 8.80363C24.3284 9.00953 24.2035 9.19661 24.046 9.35413C23.8885 9.51165 23.7014 9.63651 23.4955 9.72154C23.2896 9.80657 23.0689 9.85009 22.8462 9.84961ZM15.5 10.9794C16.3942 10.9794 17.2683 11.2446 18.0118 11.7413C18.7552 12.2381 19.3347 12.9442 19.6769 13.7703C20.0191 14.5964 20.1086 15.5055 19.9342 16.3825C19.7597 17.2595 19.3291 18.065 18.6969 18.6973C18.0646 19.3296 17.259 19.7602 16.382 19.9346C15.505 20.1091 14.596 20.0195 13.7699 19.6773C12.9438 19.3352 12.2377 18.7557 11.7409 18.0122C11.2441 17.2687 10.979 16.3946 10.979 15.5004C10.9802 14.3018 11.457 13.1526 12.3046 12.305C13.1521 11.4574 14.3013 10.9807 15.5 10.9794ZM15.5 8.7192C14.1588 8.7192 12.8477 9.11691 11.7325 9.86205C10.6174 10.6072 9.7482 11.6663 9.23494 12.9054C8.72169 14.1445 8.5874 15.508 8.84905 16.8234C9.11071 18.1388 9.75656 19.3471 10.7049 20.2955C11.6533 21.2439 12.8616 21.8897 14.177 22.1514C15.4925 22.4131 16.856 22.2788 18.0951 21.7655C19.3342 21.2523 20.3933 20.3831 21.1384 19.2679C21.8835 18.1527 22.2813 16.8417 22.2813 15.5004C22.2813 13.702 21.5668 11.9771 20.2951 10.7054C19.0233 9.43365 17.2985 8.7192 15.5 8.7192Z" fill="white"/>
</svg>
