<svg width="85" height="27" viewBox="0 0 85 27" fill="none" xmlns="http://www.w3.org/2000/svg">
<path d="M7.072 0.619998V26H0.0160001V0.619998H7.072ZM30.2062 0.619998V6.236H23.4382V26H16.3822V6.236H9.68622V0.619998H30.2062ZM44.9848 26.252C42.6088 26.252 40.4248 25.7 38.4328 24.596C36.4408 23.468 34.8568 21.92 33.6808 19.952C32.5288 17.96 31.9528 15.716 31.9528 13.22C31.9528 10.724 32.5288 8.492 33.6808 6.524C34.8568 4.532 36.4408 2.984 38.4328 1.88C40.4248 0.775999 42.6088 0.223999 44.9848 0.223999C47.3848 0.223999 49.5688 0.775999 51.5368 1.88C53.5288 2.984 55.1008 4.532 56.2528 6.524C57.4048 8.492 57.9808 10.724 57.9808 13.22C57.9808 15.716 57.4048 17.96 56.2528 19.952C55.1008 21.92 53.5288 23.468 51.5368 24.596C49.5448 25.7 47.3608 26.252 44.9848 26.252ZM44.9848 19.7C46.7848 19.7 48.2008 19.112 49.2328 17.936C50.2888 16.76 50.8168 15.188 50.8168 13.22C50.8168 11.204 50.2888 9.62 49.2328 8.468C48.2008 7.292 46.7848 6.704 44.9848 6.704C43.1608 6.704 41.7328 7.292 40.7008 8.468C39.6688 9.62 39.1528 11.204 39.1528 13.22C39.1528 15.212 39.6688 16.796 40.7008 17.972C41.7328 19.124 43.1608 19.7 44.9848 19.7ZM84.6607 26H77.6047L68.2087 11.816V26H61.1527V0.619998H68.2087L77.6047 14.984V0.619998H84.6607V26Z" fill="white"/>
</svg>
