<svg width="36" height="41" viewBox="0 0 36 41" fill="none" xmlns="http://www.w3.org/2000/svg">
<path d="M0 7.6875C0 6.27252 1.15152 5.125 2.57143 5.125H33.4286C34.8509 5.125 36 6.27252 36 7.6875C36 9.10488 34.8509 10.25 33.4286 10.25H2.57143C1.15152 10.25 0 9.10488 0 7.6875ZM0 20.5C0 19.0826 1.15152 17.9375 2.57143 17.9375H33.4286C34.8509 17.9375 36 19.0826 36 20.5C36 21.9174 34.8509 23.0625 33.4286 23.0625H2.57143C1.15152 23.0625 0 21.9174 0 20.5ZM33.4286 35.875H2.57143C1.15152 35.875 0 34.7299 0 33.3125C0 31.8951 1.15152 30.75 2.57143 30.75H33.4286C34.8509 30.75 36 31.8951 36 33.3125C36 34.7299 34.8509 35.875 33.4286 35.875Z" fill="#FFFBFB"/>
</svg>
